<svg xmlns="http://www.w3.org/2000/svg" xmlns:xlink="http://www.w3.org/1999/xlink" viewBox="0 0 32 32" xmlns:v="https://vecta.io/nano"><style><![CDATA[.B{opacity:.35}.C{fill:#be202e}]]></style><defs><linearGradient id="A" x1="-7274.8" y1="2082.507" x2="-7243.872" y2="2046.343" gradientTransform="matrix(-0.023, -0.116, -0.116, 0.023, 79.68, -889.484)" gradientUnits="userSpaceOnUse"><stop offset="0" stop-color="#f69923"/><stop offset=".312" stop-color="#f79a23"/><stop offset=".838" stop-color="#e97826"/></linearGradient><linearGradient id="B" x1="-7503.689" y1="2086.595" x2="-7283.036" y2="2086.595" gradientTransform="matrix(-0.023, -0.116, -0.116, 0.023, 79.68, -889.484)" gradientUnits="userSpaceOnUse"><stop offset=".323" stop-color="#9e2064"/><stop offset=".63" stop-color="#c92037"/><stop offset=".751" stop-color="#cd2335"/><stop offset="1" stop-color="#e97826"/></linearGradient><linearGradient id="C" x1="-7477.053" y1="2064.42" x2="-7345.566" y2="2064.42" gradientTransform="matrix(-0.023, -0.116, -0.116, 0.023, 79.68, -889.484)" gradientUnits="userSpaceOnUse"><stop offset="0" stop-color="#282662"/><stop offset=".095" stop-color="#662e8d"/><stop offset=".788" stop-color="#9f2064"/><stop offset=".949" stop-color="#cd2032"/></linearGradient><linearGradient id="D" x1="-7491.296" y1="2088.633" x2="-7270.643" y2="2088.633" xlink:href="#B"/><linearGradient id="E" x1="-7475.203" y1="2085.61" x2="-7359.244" y2="2085.61" xlink:href="#C"/><linearGradient id="F" x1="-7491.296" y1="2065.799" x2="-7270.643" y2="2065.799" xlink:href="#B"/><linearGradient id="G" x1="-7504.984" y1="2066.905" x2="-7284.331" y2="2066.905" xlink:href="#B"/><linearGradient id="H" x1="-7491.296" y1="2058.959" x2="-7270.643" y2="2058.959" xlink:href="#B"/><linearGradient id="I" x1="-7491.296" y1="2059.762" x2="-7270.643" y2="2059.762" xlink:href="#B"/><linearGradient id="J" x1="-8307.632" y1="2040.008" x2="-8276.704" y2="2003.844" gradientTransform="matrix(0.074, -0.112, -0.112, -0.074, 864.083, -775.51)" xlink:href="#A"/><linearGradient id="K" x1="-8536.521" y1="2044.096" x2="-8315.868" y2="2044.096" gradientTransform="matrix(0.074, -0.112, -0.112, -0.074, 864.083, -775.51)" xlink:href="#B"/><linearGradient id="L" x1="-8509.885" y1="2021.921" x2="-8378.397" y2="2021.921" gradientTransform="matrix(0.074, -0.112, -0.112, -0.074, 864.083, -775.51)" xlink:href="#C"/><linearGradient id="M" x1="-8524.128" y1="2046.134" x2="-8303.475" y2="2046.134" gradientTransform="matrix(0.074, -0.112, -0.112, -0.074, 864.083, -775.51)" xlink:href="#B"/><linearGradient id="N" x1="-8508.035" y1="2043.111" x2="-8392.076" y2="2043.111" gradientTransform="matrix(0.074, -0.112, -0.112, -0.074, 864.083, -775.51)" xlink:href="#C"/><linearGradient id="O" x1="-8524.128" y1="2023.3" x2="-8303.475" y2="2023.3" gradientTransform="matrix(0.074, -0.112, -0.112, -0.074, 864.083, -775.51)" xlink:href="#B"/><linearGradient id="P" x1="-8537.816" y1="2024.407" x2="-8317.163" y2="2024.407" gradientTransform="matrix(0.074, -0.112, -0.112, -0.074, 864.083, -775.51)" xlink:href="#B"/><linearGradient id="Q" x1="-8524.128" y1="2016.46" x2="-8303.475" y2="2016.46" gradientTransform="matrix(0.074, -0.112, -0.112, -0.074, 864.083, -775.51)" xlink:href="#B"/><linearGradient id="R" x1="-8524.128" y1="2017.263" x2="-8303.475" y2="2017.263" gradientTransform="matrix(0.074, -0.112, -0.112, -0.074, 864.083, -775.51)" xlink:href="#B"/><path id="S" d="M10.924 13.495l-.206.211h0l.107-.108a1.212 1.212 0 0 0 .099-.103z"/><path id="T" d="M10.4 12.356h0c.012-.009.021-.021.032-.03l.128-.136-.161.166z"/><path id="U" d="M10.827 13.6c-.033.037-.07.069-.107.108h0a1.391 1.391 0 0 1 .107-.108z"/><path id="V" d="M10.4,12.359c.012-.009.021-.021.036-.033-.012.009-.021.021-.036.033Z"/><path id="W" d="M19.9 15.646l-.334.006h0 .172a1.371 1.371 0 0 0 .162-.006z"/><path id="X" d="M20.384 14.314h0 .05l.212-.008-.261.006z"/><path id="Y" d="M19.738 15.655h-.172 0a1.573 1.573 0 0 1 .172 0z"/><path id="Z" d="M20.378 14.313h.055-.055z"/></defs><path d="M5.976 2.533a9.539 9.539 0 0 0-.4 2.655l1.427.691a17.928 17.928 0 0 1 .1-2.541l.011-.092c0 .031-.009.061-.011.092A15.939 15.939 0 0 0 7.1 5.845a27.79 27.79 0 0 0 2.114-2 3.041 3.041 0 0 0-1.593-1.701s-1.264-.51-1.645.389z" fill="url(#A)"/><g class="C"><use xlink:href="#S"/><use xlink:href="#S" class="B"/><use xlink:href="#T"/><use xlink:href="#T" class="B"/></g><path d="M7.38 10.092q-.1-.712-.18-1.4l-.131-1.408c0-.028-.005-.056 0-.081L7 5.878l-1.425-.687-.013.269-.028 1.085.008 1.347.051 1.34.081 1.192v.046l1.906.965-.2-1.343z" fill="url(#B)"/><path d="M10.2 21.362l.328 1.095a1.25 1.25 0 0 0 .049.172l.307.984a1.927 1.927 0 0 1 1.094.262 1.563 1.563 0 0 0-1.041-.566 3.349 3.349 0 0 0 1.827-2.977l-.047-.326a1.347 1.347 0 0 1-.766 1.152h0 0a3.766 3.766 0 0 0 .61-2.373l-.075-.619a3.056 3.056 0 0 1-1.772 2.462l-.578.532.064.202z" fill="url(#C)"/><path d="M9.453 19.735l-.365-1.374-.338-1.346-.324-1.368-.308-1.4-.282-1.393-.093-.5-.152-.863c0-.015-.005-.032-.01-.047l-1.895-.967a.679.679 0 0 1 .007.091l.126 1.3.172 1.341.179 1.138.041.228.282 1.351.357 1.356.246.794.225.635.6 1.438 1.915.97-.3-1.073-.083-.311z" fill="url(#D)"/><path d="M7.947 20.208a14.86 14.86 0 0 0 .881 1.627c.011.016.022.038.033.054a3.864 3.864 0 0 0-1.46-.113 5.37 5.37 0 0 1 2.353 1.371 2.468 2.468 0 0 1-1.112.558 2.46 2.46 0 0 0 1.22-.108 3 3 0 0 0-.742 1.447 3.084 3.084 0 0 1 1.205-1.276l2.034 6.14a.577.577 0 0 0 .09-.541l-2.095-6.468-.089-.3-.025-.084q-.16-.55-.326-1.132l-.074-.265h0l-1.915-.97a.357.357 0 0 0 .022.06z" fill="url(#E)"/><path d="M7.806 11.476l.034.186.109.575.126.647.066.336.221 1.047.311 1.366.336 1.384.359 1.391.355 1.3c0 .021.014.044.018.065l.386 1.353a.069.069 0 0 0 .009.029l.578-.532c-.015 0-.026.013-.045.021a5.547 5.547 0 0 0 1.408-3.114 7.47 7.47 0 0 0-.018-1.737 11.925 11.925 0 0 0-.278-1.486l-.425-1.456a2.891 2.891 0 0 1-.441.637l-.1.11c-.033.037-.07.069-.107.108h0a3.377 3.377 0 0 0 .416-2.507 3.176 3.176 0 0 1-.572.991 2.01 2.01 0 0 1-.128.136c-.012.009-.021.021-.036.033h0a3.52 3.52 0 0 0 .371-.814 1.509 1.509 0 0 0 .043-.17l.047-.263.019-.171a2.461 2.461 0 0 0 0-.413c0-.046 0-.087-.011-.13l-.031-.182-.149-.7-.076-.275c-.012-.033-.018-.065-.03-.1l-.084-.245a2.452 2.452 0 0 0-.105-.242h0a.532.532 0 0 1-.042.115 3.749 3.749 0 0 1-.65.934l.533-.487-.536.484a.018.018 0 0 0-.009.013A1.082 1.082 0 0 0 9.6 9.8c0-.007.009-.013.01-.019l-1.82 1.665c.015.013.017.023.016.03z" fill="url(#F)"/><path d="M7.1 5.845l.1 1.344a.485.485 0 0 0 .009.078l.162 1.409.2 1.4.227 1.367 1.82-1.667a2.987 2.987 0 0 0 .457-1.647l-.022-.447a14.324 14.324 0 0 0-.158-1.432 12.46 12.46 0 0 0-.271-1.287 6.825 6.825 0 0 0-.209-.653l-.2-.454A28.8 28.8 0 0 1 7.1 5.845z" fill="url(#G)"/><g class="C"><use xlink:href="#U"/><use xlink:href="#U" class="B"/></g><use xlink:href="#U" fill="url(#H)"/><g class="C"><use xlink:href="#V"/><use xlink:href="#V" class="B"/></g><use xlink:href="#V" fill="url(#I)"/><path d="M24.627 2.891A10.789 10.789 0 0 0 22.2 4.713l.6 1.69a20.278 20.278 0 0 1 2.1-1.965l.082-.066c-.026.024-.056.042-.082.066a18.028 18.028 0 0 0-2 2.013 31.432 31.432 0 0 0 3.288.072 3.44 3.44 0 0 0 .071-2.639s-.612-1.414-1.632-.993z" fill="url(#J)"/><g class="C"><use xlink:href="#W"/><use xlink:href="#W" class="B"/><use xlink:href="#X"/><use xlink:href="#X" class="B"/></g><path d="M19.751 10.091q.486-.652.968-1.272l1.013-1.237.06-.069 1-1.117-.6-1.685-.224.205-.884.851-1.064 1.091-1.023 1.119-.882 1.024-.034.039.767 2.291.903-1.24z" fill="url(#K)"/><path d="M13.063 21.4l-.605 1.142-.093.18-.534 1.036a2.18 2.18 0 0 1 .673 1.08 1.768 1.768 0 0 0-.388-1.282c1.558.3 2.973.1 3.836-.945l.221-.3a1.524 1.524 0 0 1-1.532.318h0a4.26 4.26 0 0 0 2.376-1.429l.431-.558a3.456 3.456 0 0 1-3.383.574l-.888-.031-.114.215z" fill="url(#L)"/><path d="M13.758 19.5l.8-1.4.8-1.352.826-1.359.867-1.375.879-1.346.325-.479.563-.815c.008-.015.021-.03.029-.046l-.757-2.284a.768.768 0 0 1-.067.079l-.934 1.149-.927 1.217-.76 1.058-.148.217-.847 1.312-.789 1.375-.433.835-.323.69-.661 1.633.771 2.3.611-1.1.175-.309z" fill="url(#M)"/><path d="M12.17 18.686a16.808 16.808 0 0 0-.583 2.01c0 .022-.013.048-.016.07a4.37 4.37 0 0 0-1.086-1.251 6.074 6.074 0 0 1 .805 2.973 2.792 2.792 0 0 1-1.339-.435 2.782 2.782 0 0 0 1.068.883 3.4 3.4 0 0 0-1.747.575 3.488 3.488 0 0 1 1.984-.069L8.015 30a.652.652 0 0 0 .5-.364l3.453-6.872.168-.314.046-.087q.308-.57.637-1.17l.151-.272v-.005l-.771-2.3a.4.4 0 0 0-.029.07z" fill="url(#N)"/><path d="M18.994 11.544l-.12.176-.369.55-.413.621-.214.323-.654 1.018-.835 1.346-.829 1.381-.816 1.4-.75 1.331c-.014.02-.023.046-.037.067l-.765 1.4a.078.078 0 0 0-.016.031l.888.031c-.015-.008-.032-.01-.053-.019a6.274 6.274 0 0 0 3.607-1.389 8.449 8.449 0 0 0 1.368-1.411 13.487 13.487 0 0 0 .956-1.417l.815-1.51a3.269 3.269 0 0 1-.861.162l-.168.009h-.172 0a3.82 3.82 0 0 0 2.326-1.688 3.592 3.592 0 0 1-1.248.344c-.068.007-.14.007-.212.008h-.055 0a3.981 3.981 0 0 0 .945-.36 1.707 1.707 0 0 0 .17-.1c.086-.054.166-.114.247-.174l.151-.122a2.784 2.784 0 0 0 .326-.335l.094-.114.119-.171.439-.684.158-.282c.016-.036.037-.067.054-.1l.127-.264a2.773 2.773 0 0 0 .107-.278h0a.6.6 0 0 1-.125.059 4.24 4.24 0 0 1-1.265.236l.816.031-.816-.031a.02.02 0 0 0-.017 0 1.224 1.224 0 0 0-.128 0c.006 0 .017 0 .023-.008l-2.79-.1c.005.018-.002.028-.008.033z" fill="url(#O)"/><path d="M22.9 6.452l-.986 1.164a.548.548 0 0 0-.055.07l-.989 1.263-.954 1.29-.9 1.281 2.79.1a3.379 3.379 0 0 0 1.677-.962l.338-.377A16.2 16.2 0 0 0 24.828 9a14.093 14.093 0 0 0 .8-1.251 7.72 7.72 0 0 0 .351-.691l.2-.525a32.58 32.58 0 0 1-3.279-.081z" fill="url(#P)"/><g class="C"><use xlink:href="#Y"/><use xlink:href="#Y" class="B"/></g><use xlink:href="#Y" fill="url(#Q)"/><g class="C"><use xlink:href="#Z"/><use xlink:href="#Z" class="B"/></g><use xlink:href="#Z" fill="url(#R)"/></svg>